<?xml version="1.0" encoding="UTF-8"?>
<svg version="1.1" xmlns="http://www.w3.org/2000/svg" width="512" height="512">
<path d="M0 0 C168.96 0 337.92 0 512 0 C512 168.96 512 337.92 512 512 C343.04 512 174.08 512 0 512 C0 343.04 0 174.08 0 0 Z " fill="#2196F3" transform="translate(0,0)"/>
<path d="M0 0 C10.56 0 21.12 0 32 0 C32 73.92 32 147.84 32 224 C21.44 224 10.88 224 0 224 C0 245.12 0 266.24 0 288 C-10.56 288 -21.12 288 -32 288 C-32 298.56 -32 309.12 -32 320 C-127.04 320 -222.08 320 -320 320 C-320 309.44 -320 298.88 -320 288 C-309.44 288 -298.88 288 -288 288 C-288 277.44 -288 266.88 -288 256 C-277.44 256 -266.88 256 -256 256 C-256 245.44 -256 234.88 -256 224 C-245.44 224 -234.88 224 -224 224 C-224 213.44 -224 202.88 -224 192 C-213.44 192 -202.88 192 -192 192 C-192 181.44 -192 170.88 -192 160 C-170.88 160 -149.76 160 -128 160 C-128 149.44 -128 138.88 -128 128 C-117.44 128 -106.88 128 -96 128 C-96 117.44 -96 106.88 -96 96 C-85.44 96 -74.88 96 -64 96 C-64 85.44 -64 74.88 -64 64 C-53.44 64 -42.88 64 -32 64 C-32 53.44 -32 42.88 -32 32 C-21.44 32 -10.88 32 0 32 C0 21.44 0 10.88 0 0 Z " fill="#FFFFFF" transform="translate(480,96)"/>
<path d="M0 0 C95.04 0 190.08 0 288 0 C288 10.56 288 21.12 288 32 C277.44 32 266.88 32 256 32 C256 42.56 256 53.12 256 64 C245.44 64 234.88 64 224 64 C224 74.56 224 85.12 224 96 C213.44 96 202.88 96 192 96 C192 106.56 192 117.12 192 128 C181.44 128 170.88 128 160 128 C160 138.56 160 149.12 160 160 C138.88 160 117.76 160 96 160 C96 170.56 96 181.12 96 192 C85.44 192 74.88 192 64 192 C64 202.56 64 213.12 64 224 C53.44 224 42.88 224 32 224 C32 234.56 32 245.12 32 256 C21.44 256 10.88 256 0 256 C0 266.56 0 277.12 0 288 C-10.56 288 -21.12 288 -32 288 C-32 298.56 -32 309.12 -32 320 C-42.56 320 -53.12 320 -64 320 C-64 246.08 -64 172.16 -64 96 C-53.44 96 -42.88 96 -32 96 C-32 74.88 -32 53.76 -32 32 C-21.44 32 -10.88 32 0 32 C0 21.44 0 10.88 0 0 Z " fill="#FFFFFF" transform="translate(64,96)"/>
</svg>
